<svg width="20" height="19" fill="none" xmlns="http://www.w3.org/2000/svg"><path d="M17.479 15.753C19.046 14.117 20 11.967 20 9.613c0-2.45-1.033-4.677-2.715-6.336 0-.002-.003-.003-.004-.004C15.53 1.548 13.076.444 10.347.358L10.15.352a4.762 4.762 0 00-.303 0l-.194.004C6.924.445 4.471 1.549 2.72 3.274l-.005.004C1.033 4.937 0 7.165 0 9.614c0 2.354.954 4.504 2.521 6.14l.005.01c.006.007.015.011.022.018 1.76 1.824 4.286 2.998 7.106 3.088l.194.005c.051.001.101.003.152.003l.151-.003.194-.005c2.823-.09 5.352-1.267 7.113-3.094.004-.006.012-.007.016-.013.003-.003.003-.006.005-.009zM.699 9.933h4.138a11.05 11.05 0 00.833 3.902c-.98.329-1.918.77-2.797 1.32C1.581 13.73.777 11.916.698 9.932zM3.06 3.87c.858.516 1.772.93 2.725 1.24a11.056 11.056 0 00-.949 4.183H.698c.083-2.079.961-3.972 2.363-5.423zM19.3 9.293h-4.138a11.057 11.057 0 00-.949-4.183c.953-.31 1.867-.724 2.725-1.24 1.402 1.451 2.28 3.344 2.363 5.423zM9.656 5.129a12.944 12.944 0 01-2.92-.41 11.322 11.322 0 012.92-3.525v3.935zm0 .639v3.526H5.527a10.46 10.46 0 01.92-3.985 13.67 13.67 0 003.208.459zm.69 0a13.667 13.667 0 003.21-.46c.562 1.25.876 2.597.918 3.986h-4.128V5.768zm0-.639V1.194a11.322 11.322 0 012.92 3.525c-.945.246-1.923.384-2.92.41zm3.59-.604a11.882 11.882 0 00-2.72-3.461 9.597 9.597 0 015.235 2.338c-.795.467-1.638.842-2.516 1.123zm-7.87 0a12.416 12.416 0 01-2.514-1.123 9.596 9.596 0 015.235-2.338 11.878 11.878 0 00-2.72 3.461zm-.538 5.407h4.128v3.207c-1.14.028-2.257.193-3.331.492a10.445 10.445 0 01-.797-3.699zm4.128 3.846v4.254a11.283 11.283 0 01-3.063-3.807c.988-.27 2.015-.42 3.063-.447zm.69 4.254v-4.254c1.048.027 2.075.178 3.063.447a11.281 11.281 0 01-3.063 3.807zm0-4.893V9.932h4.128a10.442 10.442 0 01-.797 3.7c-1.074-.3-2.19-.465-3.331-.493zm4.818-3.207h4.139c-.079 1.984-.883 3.799-2.175 5.223a13.146 13.146 0 00-2.797-1.32c.509-1.233.794-2.548.833-3.903zM3.342 15.633a12.415 12.415 0 012.592-1.208 11.838 11.838 0 002.852 3.737c-2.121-.257-4.02-1.177-5.444-2.529zm7.872 2.53a11.83 11.83 0 002.852-3.738c.908.302 1.776.706 2.592 1.208-1.425 1.352-3.323 2.272-5.444 2.53z" fill="#fff"/></svg>