<svg width="20" height="20" fill="none" xmlns="http://www.w3.org/2000/svg"><path d="M20 4.55a12.596 12.596 0 00-.1-1.29 4.291 4.291 0 00-.37-1.08 3.66 3.66 0 00-.71-1 3.91 3.91 0 00-1-.71 4.28 4.28 0 00-1.08-.36c-.424-.064-.851-.1-1.28-.11H4.55a12.61 12.61 0 00-1.29.1 4.29 4.29 0 00-1.08.37 3.66 3.66 0 00-1 .71 3.91 3.91 0 00-.71 1 4.28 4.28 0 00-.36 1.08c-.064.424-.1.851-.11 1.28v10.91c.011.431.045.862.1 1.29.075.375.2.738.37 1.08.179.37.419.709.71 1a3.91 3.91 0 001 .71 4.28 4.28 0 001.08.36c.424.063.851.1 1.28.11h10.91c.431-.011.862-.045 1.29-.1a4.29 4.29 0 001.08-.37 3.66 3.66 0 001-.71 3.91 3.91 0 00.71-1 4.28 4.28 0 00.36-1.08c.063-.424.1-.851.11-1.28V4.55zM10.23 17a7.12 7.12 0 01-3.43-.9l-3.8 1 1-3.72A7.11 7.11 0 013 9.8a7.18 7.18 0 117.23 7.2zm0-13.13A6 6 0 005.18 13l.14.23-.6 2.19L7 14.8l.22.13a6 6 0 003 .83 6 6 0 100-12l.01.11zm3.5 8.52a1.82 1.82 0 01-1.21.85 2.33 2.33 0 01-1.12-.07 8.896 8.896 0 01-1-.38 8 8 0 01-3.06-2.7 3.48 3.48 0 01-.73-1.85 2 2 0 01.63-1.5.65.65 0 01.48-.22H8c.11 0 .26 0 .4.31s.51 1.24.56 1.33a.34.34 0 010 .31 1.14 1.14 0 01-.18.3c-.09.11-.19.24-.27.32-.08.08-.18.18-.08.36.272.46.609.877 1 1.24a5 5 0 001.44.89c.18.09.29.08.39 0 .1-.08.45-.52.57-.7.12-.18.24-.15.4-.09.16.06 1.05.49 1.23.58.18.09.29.13.34.21.043.262.02.53-.07.78v.03z" fill="#DDD5D5"/></svg>